<svg version="1.1" xmlns="http://www.w3.org/2000/svg" xmlns:xlink="http://www.w3.org/1999/xlink" width="320.09478" height="249.02288" viewBox="0,0,320.09478,249.02288"><g transform="translate(-86.25,-64.54674)"><g data-paper-data="{&quot;isPaintingLayer&quot;:true}" fill-rule="nonzero" stroke="#000000" stroke-width="7.5" stroke-linejoin="miter" stroke-miterlimit="10" stroke-dasharray="" stroke-dashoffset="0" style="mix-blend-mode: normal"><path d="M179,147.41667c0,21.17856 0.12218,45.373 -7.78361,59.36167c-8.07189,14.28257 -21.30031,16.13833 -33.71639,16.13833c-24.57667,0 -47.5,-32.69793 -47.5,-75.5c0,-35.3819 21.61428,-64.89264 40.21727,-74.17682c3.90135,-1.94705 4.02211,-1.98985 8.28273,-1.98985c9.4906,0 14.28727,6.84088 21.51071,15.65789c7.09144,8.6559 9.66662,20.67838 12.89353,34.03192c1.99801,8.26811 6.09576,16.42987 6.09576,26.47686z" fill="#ffffff" stroke-linecap="butt"/><path d="M92.33335,144.75c0,-27.69474 6.55625,-36.53947 14.73149,-46.28421c2.82925,-3.37242 11.05202,-17.21579 14.60183,-17.21579c5.33704,0 7.95404,8.2664 10.79227,15.654c4.50439,11.7244 7.54107,27.31011 7.54107,50.17933c0,37.27922 -14.52622,56.16666 -28.33334,56.16666c-13.80712,0 -19.33333,-21.22078 -19.33333,-58.5z" fill="#000000" stroke-linecap="butt"/><path d="M396.28791,138.46343c0,0.73132 6.32446,27.1267 6.30683,27.85263c-0.91625,37.74053 -46.14318,53.31403 -76.30683,53.31403c-7.95851,0 -13.23313,-1.50893 -18.65643,-6.39415c-3.64048,-3.27929 -7.56702,-7.55243 -10.67815,-12.54328c-1.04657,-1.67889 -2.00086,-3.439 -2.82096,-5.26982c-2.65566,-5.92862 -5.93882,-13.26533 -7.34049,-20.31988c-2.36678,-11.91194 -1.83731,-24.25349 -1.83731,-36.63954c0,-7.15812 -1.14963,-14.06588 0.43071,-20.57155c1.62329,-6.68247 2.1251,-17.60736 5.32453,-23.27687c3.64272,-6.45503 11.88087,-12.84422 17.53371,-16.69746c7.40683,-5.04885 10.36109,-7.38117 17.90132,-8.54608c3.36901,-0.52049 10.58822,-1.07471 14.47639,-1.07471c8.52943,0 10.94415,6.08467 18.16958,10.40651c6.96722,4.16739 10.91532,11.9357 16.90344,18.54946c10.18559,11.2498 20.59365,23.57683 20.59365,41.21069z" fill="#ffffff" stroke-linecap="butt"/><path d="M336.39817,80.79913c2.82925,-3.37242 5.71868,-5.54913 9.26849,-5.54913c0.73615,0 11.08722,4.82394 11.7276,5.11449c4.00226,1.81588 25.95126,24.83758 28.39801,31.20618c4.50439,11.7244 10.20774,5.64345 10.20774,28.51267c0,0.71182 4.32804,14.75026 4.31755,15.44867c-0.12899,8.59134 -1.07653,17.75303 -2.7688,24.68618c-2.25175,9.22534 -5.82207,15.27557 -10.53704,18.2687c-6.5394,4.15131 -6.35997,6.76311 -12.34506,6.76311c-0.3585,0 -4.36804,3.31567 -4.69733,3.28063c-6.28089,-0.66834 -3.94998,-7.6607 -14.34048,-19.06957c-3.63422,-3.99041 -10.28207,-12.67569 -11.75358,-19.59185c-1.50624,-7.07937 -10.61488,-14.29543 -9.58352,-21.25384c0.19886,-1.34169 -4.10985,-7.92308 -5.00879,-15.76537c-1.57867,-13.7723 -1.06002,-42.30613 7.11521,-52.05087z" data-paper-data="{&quot;index&quot;:null}" fill="#000000" stroke-linecap="butt"/><path d="M145.29805,286.31962l194,1" fill="none" stroke-linecap="round"/><path d="M357.79805,264.81962c0,0 -5.18798,-0.81121 -9.79188,3.67391c-3.69199,3.59674 -8.00836,15.70559 -7.97239,18.83487c0.04165,3.62376 0.63302,12.0223 4.82188,17.12261c4.417,5.37808 10.94239,4.86861 10.94239,4.86861" fill="none" stroke-linecap="round"/><path d="M125.79805,255.81962c0,0 6.81886,7.64653 12.86352,16.01512c3.63587,5.03372 7.62984,12.14778 7.89421,15.61762c0.06896,0.90515 -0.0118,1.93603 -0.22618,3.0424c-0.75008,3.87117 -3.13586,8.6665 -6.46642,12.23346c-4.25202,4.55382 -10.06514,7.09139 -10.06514,7.09139" fill="none" stroke-linecap="round"/></g></g></svg>